<?xml version="1.0" encoding="UTF-8" standalone="no"?>
<!-- Created with Inkscape (http://www.inkscape.org/) -->
<svg
   xmlns:dc="http://purl.org/dc/elements/1.1/"
   xmlns:cc="http://creativecommons.org/ns#"
   xmlns:rdf="http://www.w3.org/1999/02/22-rdf-syntax-ns#"
   xmlns:svg="http://www.w3.org/2000/svg"
   xmlns="http://www.w3.org/2000/svg"
   xmlns:xlink="http://www.w3.org/1999/xlink"
   xmlns:sodipodi="http://sodipodi.sourceforge.net/DTD/sodipodi-0.dtd"
   xmlns:inkscape="http://www.inkscape.org/namespaces/inkscape"
   width="969.36322"
   height="819.18298"
   id="svg2"
   sodipodi:version="0.32"
   inkscape:version="0.46"
   version="1.0"
   sodipodi:docname="pacman.svg"
   inkscape:output_extension="org.inkscape.output.svg.inkscape">
  <defs
     id="defs4">
    <linearGradient
       id="linearGradient5461">
      <stop
         style="stop-color:#eeebba;stop-opacity:1;"
         offset="0"
         id="stop5463" />
      <stop
         id="stop5465"
         offset="0.26034606"
         style="stop-color:#d9d38f;stop-opacity:1;" />
      <stop
         style="stop-color:#c3ba42;stop-opacity:1;"
         offset="0.75"
         id="stop5467" />
      <stop
         id="stop5469"
         offset="0.875"
         style="stop-color:#bcb33a;stop-opacity:1;" />
      <stop
         id="stop5471"
         offset="1"
         style="stop-color:#aea51e;stop-opacity:1;" />
    </linearGradient>
    <linearGradient
       id="linearGradient3229">
      <stop
         id="stop3255"
         offset="0"
         style="stop-color:#eeebba;stop-opacity:1;" />
      <stop
         style="stop-color:#d9d38f;stop-opacity:1;"
         offset="0.26034606"
         id="stop3259" />
      <stop
         id="stop3261"
         offset="0.75"
         style="stop-color:#c3ba42;stop-opacity:1;" />
      <stop
         style="stop-color:#bcb33a;stop-opacity:1;"
         offset="0.875"
         id="stop3263" />
      <stop
         style="stop-color:#aea51e;stop-opacity:1;"
         offset="1"
         id="stop3257" />
    </linearGradient>
    <inkscape:perspective
       sodipodi:type="inkscape:persp3d"
       inkscape:vp_x="0 : 526.18109 : 1"
       inkscape:vp_y="0 : 1000 : 0"
       inkscape:vp_z="744.09448 : 526.18109 : 1"
       inkscape:persp3d-origin="372.04724 : 350.78739 : 1"
       id="perspective10" />
    <inkscape:perspective
       id="perspective2390"
       inkscape:persp3d-origin="372.04724 : 350.78739 : 1"
       inkscape:vp_z="744.09448 : 526.18109 : 1"
       inkscape:vp_y="0 : 1000 : 0"
       inkscape:vp_x="0 : 526.18109 : 1"
       sodipodi:type="inkscape:persp3d" />
    <radialGradient
       inkscape:collect="always"
       xlink:href="#linearGradient5461"
       id="radialGradient3253"
       cx="628.0506"
       cy="362.84814"
       fx="628.0506"
       fy="362.84814"
       r="322.38828"
       gradientTransform="matrix(1,0,0,1.0933429,0,-33.869287)"
       gradientUnits="userSpaceOnUse" />
    <filter
       inkscape:collect="always"
       id="filter4679">
      <feGaussianBlur
         inkscape:collect="always"
         stdDeviation="3.0139822"
         id="feGaussianBlur4681" />
    </filter>
    <filter
       inkscape:collect="always"
       id="filter4683">
      <feGaussianBlur
         inkscape:collect="always"
         stdDeviation="3.0139822"
         id="feGaussianBlur4685" />
    </filter>
    <filter
       inkscape:collect="always"
       id="filter4687">
      <feGaussianBlur
         inkscape:collect="always"
         stdDeviation="3.0139822"
         id="feGaussianBlur4689" />
    </filter>
    <filter
       inkscape:collect="always"
       id="filter4691">
      <feGaussianBlur
         inkscape:collect="always"
         stdDeviation="3.0139822"
         id="feGaussianBlur4693" />
    </filter>
    <filter
       inkscape:collect="always"
       id="filter4695">
      <feGaussianBlur
         inkscape:collect="always"
         stdDeviation="3.0139822"
         id="feGaussianBlur4697" />
    </filter>
    <filter
       inkscape:collect="always"
       id="filter4699">
      <feGaussianBlur
         inkscape:collect="always"
         stdDeviation="3.0139822"
         id="feGaussianBlur4701" />
    </filter>
    <filter
       inkscape:collect="always"
       id="filter4703">
      <feGaussianBlur
         inkscape:collect="always"
         stdDeviation="1.6463874"
         id="feGaussianBlur4705" />
    </filter>
    <filter
       inkscape:collect="always"
       id="filter4707">
      <feGaussianBlur
         inkscape:collect="always"
         stdDeviation="1.6463874"
         id="feGaussianBlur4709" />
    </filter>
    <filter
       inkscape:collect="always"
       id="filter4711">
      <feGaussianBlur
         inkscape:collect="always"
         stdDeviation="1.6463874"
         id="feGaussianBlur4713" />
    </filter>
    <filter
       inkscape:collect="always"
       id="filter4715">
      <feGaussianBlur
         inkscape:collect="always"
         stdDeviation="1.6463874"
         id="feGaussianBlur4717" />
    </filter>
    <filter
       inkscape:collect="always"
       id="filter4719">
      <feGaussianBlur
         inkscape:collect="always"
         stdDeviation="1.6463874"
         id="feGaussianBlur4721" />
    </filter>
    <filter
       inkscape:collect="always"
       id="filter4723">
      <feGaussianBlur
         inkscape:collect="always"
         stdDeviation="1.6463874"
         id="feGaussianBlur4725" />
    </filter>
    <filter
       inkscape:collect="always"
       id="filter4727">
      <feGaussianBlur
         inkscape:collect="always"
         stdDeviation="1.4772984"
         id="feGaussianBlur4729" />
    </filter>
    <filter
       inkscape:collect="always"
       id="filter4731">
      <feGaussianBlur
         inkscape:collect="always"
         stdDeviation="1.4772984"
         id="feGaussianBlur4733" />
    </filter>
    <filter
       inkscape:collect="always"
       id="filter4735">
      <feGaussianBlur
         inkscape:collect="always"
         stdDeviation="1.4772984"
         id="feGaussianBlur4737" />
    </filter>
    <filter
       inkscape:collect="always"
       id="filter4739">
      <feGaussianBlur
         inkscape:collect="always"
         stdDeviation="1.4772984"
         id="feGaussianBlur4741" />
    </filter>
    <filter
       inkscape:collect="always"
       id="filter4743">
      <feGaussianBlur
         inkscape:collect="always"
         stdDeviation="1.4772984"
         id="feGaussianBlur4745" />
    </filter>
    <filter
       inkscape:collect="always"
       id="filter4747">
      <feGaussianBlur
         inkscape:collect="always"
         stdDeviation="1.4772984"
         id="feGaussianBlur4749" />
    </filter>
    <filter
       inkscape:collect="always"
       id="filter4775">
      <feGaussianBlur
         inkscape:collect="always"
         stdDeviation="1.6516936"
         id="feGaussianBlur4777" />
    </filter>
    <filter
       inkscape:collect="always"
       id="filter4779">
      <feGaussianBlur
         inkscape:collect="always"
         stdDeviation="1.6516936"
         id="feGaussianBlur4781" />
    </filter>
    <filter
       inkscape:collect="always"
       id="filter4783">
      <feGaussianBlur
         inkscape:collect="always"
         stdDeviation="1.6516936"
         id="feGaussianBlur4785" />
    </filter>
    <filter
       inkscape:collect="always"
       id="filter4787">
      <feGaussianBlur
         inkscape:collect="always"
         stdDeviation="1.6516936"
         id="feGaussianBlur4789" />
    </filter>
    <filter
       inkscape:collect="always"
       id="filter4791">
      <feGaussianBlur
         inkscape:collect="always"
         stdDeviation="1.6516936"
         id="feGaussianBlur4793" />
    </filter>
    <filter
       inkscape:collect="always"
       id="filter4795">
      <feGaussianBlur
         inkscape:collect="always"
         stdDeviation="1.6516936"
         id="feGaussianBlur4797" />
    </filter>
    <filter
       inkscape:collect="always"
       id="filter4799">
      <feGaussianBlur
         inkscape:collect="always"
         stdDeviation="5.0615188"
         id="feGaussianBlur4801" />
    </filter>
    <filter
       inkscape:collect="always"
       id="filter4803">
      <feGaussianBlur
         inkscape:collect="always"
         stdDeviation="0.18370072"
         id="feGaussianBlur4805" />
    </filter>
  </defs>
  <sodipodi:namedview
     id="base"
     pagecolor="#ffffff"
     bordercolor="#666666"
     borderopacity="1.0"
     gridtolerance="10000"
     guidetolerance="10"
     objecttolerance="10"
     inkscape:pageopacity="0.0"
     inkscape:pageshadow="2"
     inkscape:zoom="0.5"
     inkscape:cx="24.675596"
     inkscape:cy="575.41116"
     inkscape:document-units="px"
     inkscape:current-layer="layer1"
     showgrid="false"
     inkscape:window-width="1440"
     inkscape:window-height="855"
     inkscape:window-x="-2"
     inkscape:window-y="0" />
  <metadata
     id="metadata7">
    <rdf:RDF>
      <cc:Work
         rdf:about="">
        <dc:format>image/svg+xml</dc:format>
        <dc:type
           rdf:resource="http://purl.org/dc/dcmitype/StillImage" />
      </cc:Work>
    </rdf:RDF>
  </metadata>
  <g
     inkscape:label="Layer 1"
     inkscape:groupmode="layer"
     id="layer1"
     transform="translate(15.260705,-45.727285)">
    <g
       id="g6923">
      <path
         style="fill:#2f3b40"
         d="M 260.08317,860.6598 C 257.28521,858.36011 235.91021,840.55809 212.58317,821.09974 C 166.76997,782.88446 167.93928,784.1127 167.73191,773.98864 C 167.68122,771.51394 167.26809,768.90332 166.81385,768.18726 C 166.14001,767.12503 154.00804,767.48411 100.91733,770.13771 C 52.327825,772.56632 35.237515,773.11254 33.441455,772.29431 C 31.527505,771.42236 30.309905,768.98156 27.480545,760.34508 C 25.524935,754.37568 15.108125,723.43258 4.3320948,691.58263 L -15.260705,633.67363 L 7.7464248,588.09528 C 23.129865,557.61985 31.485335,542.10767 32.961965,541.28183 C 34.462145,540.44282 40.461875,540.04148 51.670375,540.03038 C 60.745375,540.02139 83.357875,539.71697 101.92037,539.35388 C 132.90855,538.74777 135.67037,538.55309 135.67037,536.97496 C 135.67037,535.94483 124.02543,525.55199 106.60595,511.03563 C 90.470805,497.58956 77.128035,485.72761 76.611995,484.37049 C 76.100745,483.02596 74.335275,464.96262 72.688725,444.22973 C 71.042175,423.49684 69.233675,401.13422 68.669825,394.53503 C 64.271695,343.05984 62.716745,319.82604 63.563915,318.24329 C 64.346375,316.78141 87.034205,302.23312 142.61838,267.55055 C 152.05135,261.66471 218.13563,220.13766 226.1543,215.05697 C 229.19209,213.13221 237.41343,207.98396 244.42396,203.61641 C 251.43449,199.24886 258.12139,195.0754 259.28374,194.34205 C 261.18525,193.14236 262.65393,193.66279 273.93414,199.53338 C 285.66562,205.63883 290.67037,207.31532 290.67037,205.13965 C 290.67037,202.76639 309.78614,179.98828 324.17037,165.22146 C 368.43411,119.78042 419.15243,87.879805 480.17033,67.101075 C 522.92433,52.541885 564.89773,45.771163 612.67033,45.727552 C 645.75713,45.697348 670.85773,48.230376 700.25603,54.566272 C 790.31753,73.976252 870.07583,122.40934 925.03023,191.0599 C 936.57913,205.48704 954.78293,232.62313 954.08293,234.36811 C 953.82123,235.02061 880.00513,273.10984 790.04713,319.01086 C 700.08913,364.91188 625.11833,403.29961 623.44523,404.31692 C 621.36543,405.58158 620.72793,406.49114 621.42963,407.19272 C 622.47843,408.24145 630.90933,412.77875 832.93453,521.01956 C 897.08563,555.39036 949.79153,584.03747 950.05873,584.6798 C 950.66663,586.14064 935.12893,609.09515 925.05673,621.61646 C 861.41843,700.72903 767.23173,751.62681 660.67033,764.48888 C 642.09543,766.73089 602.90323,767.53879 583.67033,766.07614 C 565.19713,764.67126 544.96963,761.93456 530.61783,758.89833 C 515.63993,755.72965 515.55773,755.73744 513.82783,760.49029 C 513.02713,762.69002 511.56453,766.40206 510.57743,768.73928 L 508.78283,772.98876 L 501.47663,772.9764 C 497.45813,772.9696 468.09543,771.63217 436.22613,770.00435 C 404.35673,768.37652 378.15542,767.17109 378.00089,767.3256 C 377.84635,767.48011 377.45408,770.95478 377.12917,775.04707 C 376.80425,779.13936 376.07432,784.62024 375.5071,787.2268 C 374.51944,791.7654 374.06723,792.2432 364.82308,798.51542 C 340.96793,814.7013 315.23159,832.21603 304.67037,839.45203 C 298.34537,843.7856 288.89537,850.25345 283.67037,853.82503 C 278.44537,857.39661 272.77789,861.36702 271.07598,862.64817 C 269.37406,863.92931 267.34906,864.94681 266.57598,864.90928 C 265.80289,864.87174 262.88113,862.95948 260.08317,860.6598 z M 296.80124,833.2705 C 308.00426,825.59319 327.88922,811.99382 340.99003,803.04967 C 354.09084,794.10553 364.99359,786.27003 365.21835,785.63747 C 365.67114,784.36315 371.67037,714.50899 371.67037,710.51109 C 371.67037,709.12818 371.18547,707.9967 370.59281,707.9967 C 369.5602,707.9967 279.41055,769.02754 277.00098,771.35788 C 276.21953,772.11363 275.47597,781.61082 274.75966,799.98546 C 274.1701,815.10861 273.41109,832.15899 273.07298,837.8752 C 272.48,847.90021 272.5286,848.2499 274.44516,847.74876 C 275.53798,847.46302 285.59821,840.9478 296.80124,833.2705 z M 261.08913,836.73097 C 262.30651,816.31839 263.67625,772.80731 263.12932,771.92247 C 262.48818,770.88521 256.87705,766.98091 210.83033,735.53219 C 192.49331,723.00847 176.63081,712.53706 175.58033,712.26238 C 173.174,711.63319 173.12537,709.04222 176.24155,747.49188 C 178.52095,775.6168 179.06771,779.72752 180.76059,781.468 C 184.98112,785.80718 258.24707,846.82842 259.32414,846.90146 C 260.08925,846.95336 260.6838,843.52735 261.08913,836.73097 z M 109.4147,759.12426 C 139.24908,757.59043 163.93807,756.05647 164.27911,755.71547 C 164.62015,755.37447 164.07698,744.83571 163.07208,732.29599 C 162.06717,719.75629 161.22819,706.17637 161.20767,702.11839 L 161.17037,694.74026 L 170.08867,689.11508 C 174.99374,686.02123 179.19374,682.92967 179.422,682.24495 C 179.71594,681.36324 178.4268,681.00984 175.0037,681.03372 C 163.72344,681.11242 98.698445,684.86415 97.677235,685.49522 C 96.145135,686.44199 48.486705,757.97696 47.904195,760.2042 C 47.313425,762.46304 43.000055,762.53877 109.4147,759.12426 z M 493.67033,760.84965 C 493.67033,759.53226 444.93813,686.28288 443.44983,685.36315 C 442.32393,684.66743 370.46809,680.86897 369.86375,681.47323 C 368.85632,682.48054 371.46191,684.48391 377.10962,687.0444 C 383.62541,689.99843 385.79916,692.74972 385.02818,697.06679 C 384.7894,698.40382 383.53202,711.87123 382.23399,726.99438 C 380.45843,747.68133 380.15831,754.77083 381.02216,755.62084 C 381.77058,756.35727 399.40563,757.61568 431.67033,759.23499 C 492.10833,762.26828 493.67033,762.30895 493.67033,760.84965 z M 654.51773,758.40618 C 760.06983,747.55211 855.32363,697.04769 918.71923,618.32413 C 924.11483,611.624 931.30683,602.01195 934.70143,596.96403 C 939.80303,589.37789 940.63913,587.57137 939.52193,586.54861 C 936.43553,583.72302 855.09903,539.64069 658.92283,434.47105 C 626.78923,417.24431 608.76453,407.04155 608.92283,406.16895 C 609.14543,404.94188 643.91723,386.94421 816.17033,298.89878 C 884.99263,263.72102 941.83943,234.089 943.55513,232.49811 C 944.72383,231.41438 944.43073,230.38295 941.67583,225.88521 C 921.25593,192.54695 882.01353,151.2472 847.02343,126.27047 C 791.87723,86.905831 732.24803,63.967575 660.17033,54.391591 C 650.01433,53.042293 639.62303,52.662136 612.67033,52.65385 C 582.30063,52.644512 576.13523,52.917184 561.17033,54.931493 C 524.64453,59.847975 494.99613,67.404159 463.69743,79.773408 C 408.64963,101.52829 358.83722,135.46688 321.63916,176.56168 C 309.3282,190.16228 296.67037,205.9617 296.67037,207.72755 C 296.67037,209.35096 296.48713,209.25196 391.67037,259.05314 C 493.85663,312.51838 485.44043,308.00409 486.09083,309.69878 C 486.38613,310.46804 485.27683,326.94624 483.62583,346.31702 C 481.97483,365.68779 480.19213,386.71098 479.66443,393.03521 C 473.91053,461.98566 470.72663,497.77867 470.23633,499.02225 C 469.91113,499.84715 457.95073,508.54872 443.65773,518.35907 C 429.36473,528.16941 417.67033,536.54476 417.67033,536.97093 C 417.67033,537.39711 438.03283,538.05965 462.92033,538.44323 C 487.80783,538.82682 508.88283,539.34441 509.75373,539.59344 C 511.69323,540.14807 557.67033,630.78312 557.67033,634.05183 C 557.67033,635.32007 549.12033,661.7386 538.67033,692.75968 C 528.22033,723.78076 519.67033,749.33103 519.67033,749.53807 C 519.67033,750.72169 548.60303,756.01706 566.17033,758.04867 C 592.78583,761.12669 626.72603,761.26403 654.51773,758.40618 z M 578.67033,313.46886 C 551.13743,306.2388 533.92803,281.86941 539.04073,257.35149 C 541.10433,247.45587 544.89823,240.61597 552.56083,232.97696 C 571.19693,214.39807 602.83843,210.79511 625.77463,224.64023 C 654.00773,241.68265 658.91243,276.15367 636.29113,298.5515 C 629.23023,305.54265 618.94973,311.29613 609.56723,313.50749 C 601.56653,315.3932 585.92403,315.37365 578.67033,313.46886 z M 263.67037,730.49395 C 263.67037,716.47067 263.33287,704.97091 262.92037,704.93895 C 256.6361,704.45191 191.16635,704.69058 190.33623,705.20356 C 189.57725,705.67257 189.52377,706.24697 190.17873,706.89533 C 192.47505,709.16851 261.27954,755.86593 262.42037,755.92553 C 263.3894,755.97616 263.67037,750.25971 263.67037,730.49395 z M 316.201,730.19648 C 337.00991,716.00958 354.23467,703.80432 354.47825,703.07366 C 354.8434,701.97834 350.11662,701.87777 327.54575,702.50064 C 312.48929,702.91613 294.77037,703.53531 288.17037,703.87661 L 276.17037,704.49713 L 275.90349,730.24398 C 275.68355,751.46213 275.8767,755.99084 277.00161,755.99084 C 277.75236,755.99084 295.39208,744.38338 316.201,730.19648 z M 63.036935,715.53104 L 87.903495,678.12316 L 72.203345,643.31601 C 63.568265,624.17208 51.703315,597.82692 45.836785,584.77122 C 38.757775,569.01719 34.662255,561.03039 33.659565,561.02412 C 32.668735,561.01792 25.815915,573.69362 13.748455,597.85383 L -4.6518452,634.69299 L 14.672375,692.09231 C 25.300695,723.66194 34.389025,750.27903 34.868665,751.24142 C 35.348315,752.2038 36.287415,752.97944 36.955565,752.96507 C 37.623705,752.95069 49.360325,736.10538 63.036935,715.53104 z M 509.08173,743.49236 C 510.83793,738.54297 519.86063,711.9651 529.13213,684.43043 L 545.98933,634.36739 L 527.55023,597.94898 C 516.29543,575.72017 508.49063,561.41112 507.51873,561.22397 C 506.47243,561.02249 505.40343,562.21974 504.40103,564.71556 C 503.56203,566.80457 491.78363,593.03095 478.22693,622.99641 C 460.60293,661.95197 453.80513,677.97583 454.37433,679.22219 C 456.95643,684.8764 503.38703,752.92035 504.52943,752.72439 C 505.27693,752.59617 507.32543,748.44176 509.08173,743.49236 z M 263.0158,691.24875 C 263.344,690.7177 261.2081,649.82136 260.71808,647.25413 C 260.69184,647.11665 260.21088,647.00416 259.64928,647.00416 C 258.11686,647.00416 189.67037,690.19631 189.67037,691.16332 C 189.67037,692.19996 262.3756,692.28464 263.0158,691.24875 z M 326.35647,690.3554 C 349.7538,689.71746 354.3045,689.15383 352.16201,687.15923 C 351.61661,686.65148 335.87037,678.24283 317.17037,668.47335 C 298.47037,658.70386 281.1613,649.65829 278.70576,648.37206 C 276.25023,647.08585 273.93998,646.36438 273.57187,646.7688 C 273.20376,647.17321 273.50503,656.95294 274.24136,668.50153 C 274.9777,680.05012 275.60045,690.12684 275.62526,690.89424 C 275.66258,692.04871 277.95709,692.17952 288.92037,691.65217 C 296.20787,691.30164 313.05412,690.71809 326.35647,690.3554 z M 164.17037,669.45478 C 203.04141,667.74088 206.39131,667.26056 212.17037,662.57259 C 214.83312,660.41255 215.00175,659.97216 213.67037,658.65503 C 211.90158,656.90517 143.27386,617.97829 140.83204,617.33982 C 139.55975,617.00715 135.35962,623.12391 123.16663,643.0664 C 114.36869,657.45606 107.01153,669.92232 106.8174,670.76919 C 106.51029,672.1089 107.80947,672.22952 116.8174,671.69756 C 122.51153,671.36131 143.82037,670.35206 164.17037,669.45478 z M 434.10223,671.11147 C 434.64533,670.23286 404.99113,620.89953 402.30623,618.21495 C 400.59713,616.50609 403.63153,614.97216 361.87592,638.65336 C 329.0155,657.28976 326.67037,658.70467 326.67037,659.89421 C 326.67037,660.24986 329.48287,662.09558 332.92037,663.99578 L 339.17037,667.45071 L 379.67037,669.58543 C 427.78793,672.12167 433.38093,672.27847 434.10223,671.11147 z M 112.92076,637.50382 C 121.6245,623.28272 128.54541,611.12529 128.30056,610.48731 C 127.80154,609.18703 54.278055,563.98598 51.466125,563.25074 C 50.478465,562.99249 49.670375,563.29581 49.670375,563.92477 C 49.670375,565.29086 92.529765,660.93541 93.970995,662.78553 C 94.520745,663.49127 95.448725,663.90931 96.033165,663.71452 C 96.617605,663.51973 104.21702,651.72491 112.92076,637.50382 z M 448.56323,660.21263 C 451.96793,653.53955 491.67033,564.84569 491.67033,563.91263 C 491.67033,563.41862 491.10783,563.01566 490.42033,563.01716 C 488.70853,563.0209 414.40283,608.48591 413.33043,610.18575 C 412.73893,611.12346 416.64873,618.38331 425.89983,633.52498 C 443.98953,663.13296 444.55313,664.00208 445.66263,664.00208 C 446.19453,664.00208 447.49983,662.29682 448.56323,660.21263 z M 229.1066,651.10684 C 229.41144,650.61366 220.65636,635.10749 209.65086,616.64869 L 189.64087,583.08724 L 179.40562,574.52844 C 173.77623,569.8211 168.56657,566.09211 167.82859,566.24182 C 166.06013,566.60055 146.58454,602.98259 146.91483,605.31046 C 147.08895,606.53759 159.75649,614.25426 186.67037,629.52828 C 208.39537,641.85754 226.70631,651.95826 227.36135,651.97433 C 228.01639,651.9904 228.80175,651.60003 229.1066,651.10684 z M 354.7388,629.38051 C 382.13145,613.86133 394.6539,606.24752 394.61792,605.13347 C 394.54245,602.7966 376.15803,568.72392 374.3611,567.59058 C 373.24718,566.88803 370.79414,567.99345 364.94137,571.83543 C 360.5889,574.69256 355.88615,578.26363 354.49082,579.77113 C 351.60788,582.88582 311.67037,649.23709 311.67037,650.91204 C 311.67037,651.51237 312.37616,652.00355 313.2388,652.00355 C 314.10143,652.00355 332.77643,641.82318 354.7388,629.38051 z M 304.34185,640.62668 C 309.65588,632.90044 309.6185,631.98111 303.68733,624.52822 C 300.83329,620.94194 298.06965,618.00771 297.54591,618.00771 C 296.2122,618.00771 278.44302,629.90921 276.91662,631.82486 C 276.05453,632.9068 275.98539,633.72081 276.69532,634.43065 C 278.80067,636.53574 297.23777,645.76736 299.07871,645.63822 C 300.14775,645.56323 302.46252,643.35912 304.34185,640.62668 z M 248.92037,640.11265 C 250.98287,638.86389 252.65121,637.09145 252.6278,636.17393 C 252.60438,635.2564 247.65056,630.45618 241.61931,625.50679 C 235.58805,620.55739 228.34057,614.57227 225.51379,612.20652 C 216.85312,604.95833 217.478,608.21301 228.19454,626.16925 C 233.55663,635.15375 238.63996,643.06471 239.49084,643.74917 C 240.72822,644.74453 241.45147,644.73236 243.10413,643.68839 C 244.24056,642.9705 246.85787,641.36143 248.92037,640.11265 z M 320.41886,612.47351 C 326.85037,601.94776 328.70112,598.01015 327.21692,598.01015 C 325.90937,598.01015 303.6095,614.32485 303.86693,615.09312 C 304.58227,617.22801 311.25816,624.8996 312.16886,624.63328 C 312.71803,624.47268 316.43053,619.00078 320.41886,612.47351 z M 290.07774,609.06659 C 328.50131,582.76101 391.18568,539.97953 422.67033,518.57339 C 441.09533,506.04641 456.91063,495.06041 457.81533,494.16006 C 459.05213,492.92928 459.72483,489.17336 460.52603,479.0247 C 463.18263,445.37665 472.67863,333.1655 473.14983,329.8533 C 473.43853,327.82423 473.28103,325.92082 472.79983,325.62347 C 472.16403,325.23057 277.34424,457.02446 274.78772,459.57695 C 274.21312,460.15065 267.82748,621.38858 268.34485,622.25989 C 268.98857,623.34397 271.06062,622.08611 290.07774,609.06659 z M 256.06101,615.75798 C 256.86172,607.89484 262.0858,465.22062 261.75227,460.32461 C 261.65871,458.95126 263.73084,460.39075 157.67037,388.02011 C 113.94537,358.18425 77.382875,333.55624 76.420375,333.29121 C 75.167845,332.9463 74.670375,333.38951 74.670375,334.85033 C 74.670375,335.97289 76.673915,361.78471 79.122685,392.20994 C 81.571465,422.63518 84.059335,453.82778 84.651305,461.52684 C 85.243275,469.2259 85.954475,476.95732 86.231745,478.70778 C 86.674035,481.5 95.104375,488.87881 154.95312,538.85748 C 192.47261,570.18937 229.92037,601.48312 238.17037,608.39914 C 246.42037,615.31517 253.70049,620.9813 254.34841,620.99054 C 255.03841,621.00038 255.74791,618.83262 256.06101,615.75798 z M 139.97033,591.5005 C 142.07883,587.65672 147.0364,578.32335 150.98716,570.75969 L 158.17037,557.00757 L 154.17037,553.54934 L 150.17037,550.0911 L 119.07936,550.05356 C 85.566345,550.0131 57.670375,550.90629 57.670375,552.0198 C 57.670375,552.40023 65.882875,557.73292 75.920375,563.87022 C 85.957875,570.00752 102.94537,580.4083 113.67037,586.98306 C 124.39537,593.55782 133.8378,598.83637 134.65354,598.71318 C 135.46928,598.58998 137.86184,595.34428 139.97033,591.5005 z M 445.74073,575.83889 C 466.60203,563.09477 483.67033,552.36608 483.67033,551.99736 C 483.67033,550.92121 457.49353,550.02363 425.99363,550.01968 L 396.81688,550.01602 L 390.74362,554.2064 C 387.40333,556.51109 384.67037,558.85851 384.67037,559.42286 C 384.67037,560.52139 403.22433,595.66738 404.90913,597.76018 C 405.46253,598.4476 406.34183,599.01003 406.86323,599.01003 C 407.38453,599.01003 424.87943,588.58301 445.74073,575.83889 z M 262.42836,384.703 L 262.68636,326.0434 L 176.59503,326.0434 C 108.58623,326.0434 90.590435,326.30354 90.916595,327.28192 C 91.143695,327.96312 121.21869,348.92277 157.74993,373.85896 C 194.28117,398.79515 232.27037,424.76101 242.17037,431.5609 C 252.07037,438.36079 260.62037,443.79795 261.17037,443.64347 C 261.8187,443.46138 262.2611,422.73397 262.42836,384.703 z M 367.00527,382.5365 C 416.27473,348.9906 456.60503,320.93376 456.62823,320.18796 C 456.66193,319.10257 454.92423,318.95145 447.92033,319.43072 C 443.10783,319.76003 402.72033,321.19659 358.17037,322.62307 C 313.62037,324.04955 276.60787,325.38856 275.92037,325.59866 C 273.97438,326.19332 274.10127,444.30921 276.0474,443.85232 C 276.80477,443.67452 317.73581,416.08239 367.00527,382.5365 z M 261.23322,298.79673 C 258.84414,251.95219 255.98347,210.97057 255.03653,210.02375 C 254.27462,209.26193 245.90591,214.02258 226.06773,226.50299 C 210.72418,236.15579 174.35241,259.03057 145.24156,277.33585 C 116.13071,295.64111 92.130715,311.16419 91.908235,311.83157 C 91.593195,312.77655 110.35829,313.04499 176.73179,313.04499 L 261.95988,313.04499 L 261.23322,298.79673 z M 328.94511,311.5278 C 352.71901,310.69335 390.56022,309.36615 413.03673,308.57849 C 435.51323,307.79082 454.15823,306.89125 454.47003,306.57944 C 454.78193,306.26763 454.61703,305.62559 454.10373,305.15267 C 452.37683,303.56176 271.29874,209.0577 269.97729,209.0577 C 269.10952,209.0577 268.66369,210.48561 268.6505,213.30719 C 268.62138,219.53505 273.74931,310.32485 274.21323,311.79514 C 274.71602,313.38861 276.12649,313.38172 328.94511,311.5278 z"
         id="path2398" />
      <path
         transform="translate(-23.285711,43.933613)"
         id="path3227"
         d="M 601.07924,714.44109 C 590.57084,713.5049 562.17131,709.27825 552.60705,707.22707 C 546.18082,705.84893 544.09365,704.72731 544.7538,703.00706 C 545.24825,701.71843 553.80345,675.74619 563.76518,645.29096 L 581.8777,589.91788 L 575.28511,575.51919 C 571.65891,567.59989 560.80822,546.06639 551.17226,527.66691 L 533.65216,494.21332 L 513.52433,494.21332 C 502.45408,494.21332 482.18575,493.72807 468.48354,493.13499 L 443.57049,492.05668 L 468.63386,474.06354 C 482.41879,464.16734 493.8595,455.54576 494.05771,454.90451 C 494.46026,453.6021 502.9943,357.9177 506.87888,311.1515 C 508.26097,294.51447 509.39162,277.03759 509.39162,272.31396 L 509.39162,263.72556 L 417.25742,215.33755 C 366.58364,188.72414 324.11548,166.3267 322.88376,165.56547 C 319.92318,163.73569 326.1914,154.77246 344.49011,134.66968 C 377.91124,97.953576 411.77417,72.835595 459.00472,49.728002 C 499.09336,30.114615 535.99622,18.688339 578.97261,12.582306 C 604.36314,8.9748528 682.64669,9.9647818 704.33106,14.167544 C 801.41223,32.983281 871.12687,72.075166 934.3649,143.15711 C 948.3338,158.85851 968.38084,186.21154 966.87948,187.52118 C 965.03614,189.12925 894.08677,225.99701 805.93086,271.15579 C 674.24282,338.61435 631.64178,360.8377 631.64178,362.07581 C 631.64178,363.79934 658.55879,378.66057 780.45227,444.23603 C 923.77837,521.34156 961.98071,542.46536 962.01838,544.63193 C 962.03441,545.55794 956.18589,554.10724 949.02154,563.63027 C 876.00251,660.68832 758.70149,716.74498 631.64178,715.30188 C 618.46685,715.15222 604.7137,714.76489 601.07924,714.44109 z M 646.23531,264.62472 C 669.40898,252.20597 679.66908,228.42035 671.35326,206.39517 C 666.84371,194.4513 656.07678,183.18475 643.56992,177.32289 C 635.29375,173.44388 632.06751,172.89364 617.59953,172.89364 C 602.87912,172.89364 600.0606,173.3939 591.72925,177.4852 C 553.86474,196.07973 550.50947,241.56177 585.45253,262.56892 C 598.07601,270.15796 602.23847,271.12965 620.07757,270.65225 C 634.34962,270.27032 636.72012,269.72409 646.23547,264.62472 L 646.23531,264.62472 z"
         style="opacity:1;fill:url(#radialGradient3253);fill-opacity:1.0;fill-rule:evenodd;stroke:none;stroke-opacity:1;filter:url(#filter4799)" />
      <path
         transform="translate(-23.285711,43.933613)"
         id="path3265"
         d="M 594.59634,265.95637 C 581.58381,260.47905 569.86761,248.85377 565.37707,236.96388 C 556.97303,214.71159 568.07748,190.64794 591.99308,179.28675 C 599.99831,175.48385 603.14279,174.97033 618.42554,174.97033 C 638.33943,174.97033 646.36417,177.8399 657.98305,189.11565 C 668.59883,199.4179 672.07222,207.58484 671.99094,222.05316 C 671.90702,237.01184 668.55026,244.4996 657.26475,254.90221 C 645.90375,265.37437 636.91985,268.82543 619.25156,269.50451 C 606.33632,270.0009 603.09769,269.53484 594.59634,265.95638 L 594.59634,265.95637 z"
         style="opacity:1;fill:#1a1a1a;fill-opacity:1;fill-rule:evenodd;stroke:none;stroke-opacity:1" />
      <path
         transform="translate(-23.285711,43.933613)"
         id="path3267"
         d="M 606.86134,268.40738 C 595.58095,267.09404 586.51924,262.43693 577.19882,253.16259 C 553.49435,229.57563 561.15977,194.20801 593.15065,179.56211 C 601.36405,175.80188 603.73091,175.49827 620.60738,176.03997 C 637.16088,176.57133 639.87268,177.10062 646.75966,181.14454 C 656.52464,186.87837 667.46008,199.24368 669.6097,206.98224 C 676.06947,230.2376 666.05586,252.42942 643.97484,263.79442 C 635.89724,267.95189 619.9616,269.93259 606.86134,268.40737 L 606.86134,268.40738 z"
         style="opacity:1;fill:#1a1a1a;fill-opacity:1;fill-rule:evenodd;stroke:none;stroke-opacity:1" />
      <path
         transform="translate(-23.285711,43.933613)"
         id="path3269"
         d=""
         style="opacity:1;fill:#1a1a1a;fill-opacity:1;fill-rule:evenodd;stroke:none;stroke-opacity:1" />
      <path
         transform="translate(-23.285711,43.933613)"
         id="path3271"
         d=""
         style="opacity:1;fill:#1a1a1a;fill-opacity:1;fill-rule:evenodd;stroke:none;stroke-opacity:1" />
      <path
         transform="translate(-23.285711,43.933613)"
         id="path3275"
         d="M 293.25828,559.32503 C 293.89663,550.00894 295.53166,514.01657 296.89161,479.342 C 298.25153,444.66747 299.55569,416.12923 299.78967,415.92384 C 306.93083,409.65432 494.32045,284.83283 494.73728,286.06791 C 495.07139,287.05797 492.24166,323.94693 488.44902,368.04342 C 482.45775,437.70327 480.99909,448.6363 477.32808,451.40146 C 465.98907,459.94246 294.75334,576.26336 293.51917,576.26336 C 292.73721,576.26336 292.61983,568.64111 293.25823,559.32503 L 293.25828,559.32503 z"
         style="opacity:1;fill:#c01313;fill-opacity:1;fill-rule:evenodd;stroke:none;stroke-opacity:1;filter:url(#filter4683)" />
      <path
         transform="translate(-23.285711,43.933613)"
         id="path3295"
         d="M 205.37967,516.07541 C 167.355,484.27771 130.34988,453.0087 123.14611,446.58866 L 110.04836,434.91588 L 104.57417,363.07397 C 101.56347,323.56092 99.519839,291.23206 100.03285,291.23206 C 101.25617,291.23206 257.0301,396.98604 272.17918,408.10116 L 283.86079,416.67219 L 281.13475,488.87473 C 279.63542,528.58611 278.32123,563.96847 278.21432,567.50216 C 278.10741,571.03584 277.23148,573.91854 276.26775,573.90814 C 275.30401,573.89781 243.40439,547.87299 205.37969,516.07536 L 205.37967,516.07541 z"
         style="opacity:1;fill:#c01313;fill-opacity:1;fill-rule:evenodd;stroke:none;stroke-opacity:1;filter:url(#filter4687)" />
      <path
         transform="translate(-23.285711,43.933613)"
         id="path3297"
         d="M 251.15228,376.46334 C 206.50816,346.18288 123.00032,288.53298 120.43506,286.22231 C 119.20034,285.11013 155.22199,284.2231 201.62226,284.2231 L 285.02896,284.2231 L 284.82432,329.1973 C 284.71171,353.93311 283.9232,379.32225 283.07203,385.61761 L 281.52447,397.06372 L 251.15228,376.46334 z"
         style="opacity:1;fill:#c01313;fill-opacity:1;fill-rule:evenodd;stroke:none;stroke-opacity:1;filter:url(#filter4691)" />
      <path
         transform="translate(-23.285711,43.933613)"
         id="path3299"
         d="M 299.04689,339.12667 L 299.04689,281.88678 L 314.56995,281.88678 C 323.10752,281.88678 358.06474,280.75305 392.25259,279.3674 C 426.44037,277.98173 459.07432,277.19325 464.77233,277.61516 L 475.13233,278.38229 L 427.39118,311.4473 C 357.55559,359.81473 303.13323,396.36656 300.95414,396.36656 C 299.90516,396.36656 299.04689,370.60861 299.04689,339.12667 z"
         style="opacity:1;fill:#c01313;fill-opacity:1;fill-rule:evenodd;stroke:none;stroke-opacity:1;filter:url(#filter4699)" />
      <path
         transform="translate(-23.285711,43.933613)"
         id="path3301"
         d="M 298.85181,266.1166 C 297.88417,257.42595 293.05483,168.37502 293.51609,167.7287 C 293.84836,167.26314 334.09824,187.73951 382.96027,213.23173 C 431.91904,238.77444 470.51948,260.25963 468.94711,261.09248 C 467.3778,261.92372 431.92521,263.79619 390.16345,265.25359 C 300.7738,268.37305 299.10478,268.38884 298.85178,266.1166 L 298.85181,266.1166 z"
         style="opacity:1;fill:#c01313;fill-opacity:1;fill-rule:evenodd;stroke:none;stroke-opacity:1;filter:url(#filter4695)" />
      <path
         transform="translate(-23.285711,43.933613)"
         id="path3303"
         d="M 133.19297,257.7171 C 152.10019,245.05695 252.03119,182.04022 266.59664,173.59238 L 277.36832,167.34489 L 278.79186,181.97798 C 279.57488,190.02614 280.8361,210.2785 281.59461,226.98321 C 282.3531,243.68791 283.45619,259.72092 284.04585,262.61212 L 285.11795,267.86884 L 201.57487,267.86884 L 118.03183,267.86884 L 133.19297,257.7171 z"
         style="opacity:1;fill:#c01313;fill-opacity:1;fill-rule:evenodd;stroke:none;stroke-opacity:1;filter:url(#filter4679)" />
      <path
         transform="translate(-23.285711,43.933613)"
         id="path3305"
         d="M 140.84092,610.91805 C 146.42844,601.49532 153.78739,589.39261 157.19417,584.02315 L 163.38834,574.26058 L 199.57737,594.53656 C 219.48143,605.68845 235.81146,615.51965 235.86636,616.38374 C 236.08995,619.90285 219.11173,622.77159 190.40791,624.06487 C 173.70321,624.81754 153.4311,626.02217 145.35881,626.74187 L 130.68182,628.05047 L 140.84092,610.91805 z"
         style="opacity:1;fill:#ff6600;fill-opacity:1;fill-rule:evenodd;stroke:none;stroke-opacity:1;filter:url(#filter4787)" />
      <path
         transform="translate(-23.285711,43.933613)"
         id="path3307"
         d="M 212.60554,585.56045 C 192.68968,574.22495 175.44669,563.44714 174.28768,561.60974 C 172.83223,559.30232 174.9708,553.10273 181.2017,541.56664 C 186.16349,532.38037 190.86202,524.86428 191.64301,524.86428 C 192.42404,524.86428 197.33807,528.15001 202.56321,532.16589 C 209.30953,537.35096 217.59151,548.94503 231.13391,572.16261 C 241.62275,590.145 249.892,605.15306 249.51018,605.51402 C 249.1284,605.87496 232.52124,596.89582 212.60547,585.56038 L 212.60554,585.56045 z"
         style="opacity:1;fill:#ff6600;fill-opacity:1;fill-rule:evenodd;stroke:none;stroke-opacity:1;filter:url(#filter4791)" />
      <path
         transform="translate(-23.285711,43.933613)"
         id="path3309"
         d="M 125.84577,534.74844 C 109.61125,524.8147 93.841081,514.98016 90.800941,512.89385 C 85.574075,509.3068 87.605647,509.00579 128.15184,507.35847 C 168.23523,505.73006 171.31355,505.9011 175.3762,509.98363 C 179.61466,514.24289 179.47815,514.80823 169.85159,532.85583 C 164.4228,543.03353 158.94202,551.6868 157.67206,552.08523 C 156.40218,552.48369 142.08029,544.68208 125.84577,534.74839 L 125.84577,534.74844 z"
         style="opacity:1;fill:#ff6600;fill-opacity:1;fill-rule:evenodd;stroke:none;stroke-opacity:1;filter:url(#filter4783)" />
      <path
         transform="translate(-23.285711,43.933613)"
         id="path3311"
         d="M 96.955024,571.16021 C 85.39023,545.32167 75.55922,523.2281 75.108356,522.06335 C 74.203125,519.72481 134.47183,555.96386 143.88746,563.4196 L 149.79593,568.09822 L 136.54358,590.28728 C 129.2547,602.49129 122.09654,613.75052 120.63652,615.30782 C 118.6192,617.45959 112.93409,606.86122 96.955024,571.16018 L 96.955024,571.16021 z"
         style="opacity:1;fill:#ff6600;fill-opacity:1;fill-rule:evenodd;stroke:none;stroke-opacity:1;filter:url(#filter4779)" />
      <path
         transform="translate(-23.285711,43.933613)"
         id="path3313"
         d="M 39.39328,648.53976 L 19.856394,589.98213 L 37.37881,555.77335 C 47.016139,536.95855 55.952571,521.76248 57.237548,522.00429 C 58.522525,522.24608 70.971688,547.65129 84.902335,578.46025 L 110.23073,634.47647 L 85.377216,670.78701 C 71.707793,690.7577 60.165146,707.0974 59.726899,707.0974 C 59.288675,707.0974 50.138516,680.74647 39.393234,648.53976 L 39.39328,648.53976 z"
         style="opacity:1;fill:#ff6600;fill-opacity:1;fill-rule:evenodd;stroke:none;stroke-opacity:1;filter:url(#filter4775)" />
      <path
         transform="translate(-23.285711,43.933613)"
         id="path3315"
         d="M 96.836526,679.78038 L 121.75805,642.37883 L 147.90579,640.87199 C 162.28714,640.04335 179.80638,639.36053 186.83749,639.35469 L 199.62129,639.34406 L 191.69001,644.77874 C 183.86684,650.13923 183.76453,650.43416 184.19301,666.3897 C 184.4319,675.28665 185.24447,688.97324 185.99864,696.80432 L 187.36987,711.04266 L 159.68478,712.55676 C 144.45811,713.38949 118.48077,714.77084 101.95744,715.62643 L 71.915001,717.18207 L 96.836526,679.78038 z"
         style="opacity:1;fill:#ff6600;fill-opacity:1;fill-rule:evenodd;stroke:none;stroke-opacity:1;filter:url(#filter4795)" />
      <path
         transform="translate(-23.285711,43.933613)"
         id="path3317"
         d="M 243.00338,768.58842 C 199.30829,731.95459 203.21306,738.85681 199.70378,692.04992 L 197.99654,669.27777 L 211.72456,678.21964 C 219.27508,683.1377 238.85739,696.43616 255.24085,707.77178 L 285.02896,728.38198 L 284.75589,749.8642 C 284.60568,761.67931 283.81718,777.99237 283.00364,786.11539 L 281.52447,800.88455 L 243.00338,768.58842 z"
         style="opacity:1;fill:#0032ff;fill-opacity:1;fill-rule:evenodd;stroke:none;stroke-opacity:1;filter:url(#filter4727)" />
      <path
         transform="translate(-23.285711,43.933613)"
         id="path3319"
         d="M 250.38838,686.70862 L 216.91612,663.87544 L 250.12757,663.2252 C 268.39397,662.86762 283.75907,662.99495 284.27229,663.50817 C 284.78546,664.02146 284.90289,674.58893 284.53312,686.99158 L 283.86079,709.5418 L 250.38838,686.70862 z"
         style="opacity:1;fill:#0032ff;fill-opacity:1;fill-rule:evenodd;stroke:none;stroke-opacity:1;filter:url(#filter4731)" />
      <path
         transform="translate(-23.285711,43.933613)"
         id="path3321"
         d="M 298.11089,774.36734 C 300.80988,724.13487 296.01915,731.71969 346.78316,697.30819 C 371.06579,680.84763 391.59982,667.37993 392.41424,667.37993 C 393.22868,667.37993 392.57778,681.83592 390.96782,699.50436 C 389.35784,717.17279 387.99259,733.82259 387.93388,736.5039 C 387.85421,740.13963 377.8786,748.18562 348.69373,768.15342 C 327.17037,782.8794 306.63699,796.76383 303.06403,799.00787 L 296.56768,803.08795 L 298.11089,774.36734 z"
         style="opacity:1;fill:#0032ff;fill-opacity:1;fill-rule:evenodd;stroke:none;stroke-opacity:1;filter:url(#filter4747)" />
      <path
         transform="translate(-23.285711,43.933613)"
         id="path3325"
         d="M 301.38321,685.04023 L 301.38321,660.37096 L 336.56593,660.37096 C 355.91643,660.37096 371.19845,661.26119 370.52599,662.34927 C 369.49032,664.02499 313.02968,702.96116 304.30361,708.01731 C 302.04483,709.32611 301.38321,704.12058 301.38321,685.04023 z"
         style="opacity:1;fill:#0032ff;fill-opacity:1;fill-rule:evenodd;stroke:none;stroke-opacity:1;filter:url(#filter4739)" />
      <path
         transform="translate(-23.285711,43.933613)"
         id="path3327"
         d="M 299.04689,625.13191 L 299.04689,603.91065 L 325.33051,617.84146 C 339.78651,625.50341 356.34519,634.22761 362.12759,637.22857 L 372.64104,642.68484 L 360.95942,644.31431 C 354.53454,645.21045 337.97586,646.03578 324.16235,646.14834 L 299.04689,646.35303 L 299.04689,625.13191 z"
         style="opacity:1;fill:#0032ff;fill-opacity:1;fill-rule:evenodd;stroke:none;stroke-opacity:1;filter:url(#filter4743)" />
      <path
         transform="translate(-23.285711,43.933613)"
         id="path3329"
         d="M 231.29355,636.65552 C 239.6459,631.34629 254.49044,621.9729 264.28143,615.82576 L 282.08318,604.64916 L 283.53581,616.73989 C 284.33469,623.38979 284.99749,632.77316 285.00865,637.59182 L 285.02896,646.35303 L 250.5682,646.33079 L 216.10745,646.30868 L 231.29355,636.65552 z"
         style="opacity:1;fill:#0032ff;fill-opacity:1;fill-rule:evenodd;stroke:none;stroke-opacity:1;filter:url(#filter4735)" />
      <path
         transform="translate(-23.285711,43.933613)"
         id="path3331"
         d="M 404.18138,624.92129 C 368.88304,623.05034 352.7823,620.30645 352.7823,616.16181 C 352.7823,615.28817 368.75491,605.48178 388.27699,594.36988 L 423.77161,574.16647 L 429.47695,582.56249 C 432.61491,587.18039 439.70308,598.60524 445.22851,607.95109 C 453.35758,621.70062 454.59863,625.20298 451.73203,626.30299 C 449.78354,627.05076 446.96115,627.5054 445.46001,627.31345 C 443.9589,627.12143 425.38351,626.04499 404.18138,624.92124 L 404.18138,624.92129 z"
         style="opacity:1;fill:#00ff00;fill-opacity:1;fill-rule:evenodd;stroke:none;stroke-opacity:1;filter:url(#filter4711)" />
      <path
         transform="translate(-23.285711,43.933613)"
         id="path3333"
         d=""
         style="opacity:1;fill:#fea13f;fill-opacity:1;fill-rule:evenodd;stroke:none;stroke-opacity:1" />
      <path
         transform="translate(-23.285711,43.933613)"
         id="path3335"
         d="M 418.9575,534.20272 L 409.20226,515.58415 L 415.18408,510.87901 C 421.7191,505.73847 433.71366,505.24062 479.72008,508.20037 L 502.6915,509.67818 L 467.49324,531.28916 C 448.13414,543.1752 431.48892,552.88236 430.50384,552.86066 C 429.5188,552.83895 424.32291,544.44284 418.95752,534.20267 L 418.9575,534.20272 z"
         style="opacity:1;fill:#00ff00;fill-opacity:1;fill-rule:evenodd;stroke:none;stroke-opacity:1;filter:url(#filter4719)" />
      <path
         transform="translate(-23.285711,43.933613)"
         id="path3337"
         d="M 453.57525,594.34519 C 445.68327,581.01077 439.22622,569.07761 439.22622,567.82705 C 439.22622,565.31197 509.18955,521.62284 510.73784,523.17114 C 511.81577,524.24903 472.59294,613.71124 469.73153,616.70111 C 468.73745,617.73974 461.46718,607.67958 453.57523,594.34517 L 453.57525,594.34519 z"
         style="opacity:1;fill:#00ff00;fill-opacity:1;fill-rule:evenodd;stroke:none;stroke-opacity:1;filter:url(#filter4715)" />
      <path
         transform="translate(-23.285711,43.933613)"
         id="path3339"
         d="M 506.50984,676.49607 C 476.88425,633.30018 478.45823,636.29089 481.28258,628.56189 C 486.56136,614.1162 529.10721,520.19163 530.37201,520.19163 C 531.10914,520.19163 539.8989,535.97209 549.9048,555.25929 L 568.09739,590.32693 L 550.30462,643.70726 C 540.51863,673.06654 531.13267,698.97392 529.44692,701.27933 C 526.68386,705.05798 524.42378,702.61585 506.50977,676.49607 L 506.50984,676.49607 z"
         style="opacity:1;fill:#00ff00;fill-opacity:1;fill-rule:evenodd;stroke:none;stroke-opacity:1;filter:url(#filter4703)" />
      <path
         transform="translate(-23.285711,43.933613)"
         id="path3341"
         d="M 454.41231,713.99572 C 441.56254,713.07344 424.88449,712.1954 417.34997,712.04447 L 403.65078,711.77005 L 405.01914,701.84068 C 405.77167,696.37953 407.07873,681.76571 407.92368,669.36552 L 409.45993,646.81976 L 402.73216,643.02323 C 396.37066,639.43359 397.91289,639.30848 431.04909,640.72621 C 450.32375,641.55081 466.20824,642.36574 466.34795,642.53707 C 469.22008,646.05875 513.98852,714.35869 513.98852,715.21865 C 513.98852,716.77158 484.71768,716.17067 454.41231,713.99565 L 454.41231,713.99572 z"
         style="opacity:1;fill:#00ff00;fill-opacity:1;fill-rule:evenodd;stroke:none;stroke-opacity:1;filter:url(#filter4707)" />
      <path
         transform="translate(-23.285711,43.933613)"
         id="path3343"
         d="M 338.76436,603.18055 C 338.76436,602.56535 346.74022,588.63503 356.4885,572.22433 C 373.28595,543.94668 390.28251,523.73581 395.73654,525.55382 C 397.101,526.00858 402.34875,534.06151 407.3981,543.44904 L 416.5787,560.51728 L 411.35006,564.46127 C 405.34216,568.99306 342.2427,604.29923 340.15139,604.29923 C 339.38851,604.29923 338.76436,603.79585 338.76436,603.1806 L 338.76436,603.18055 z"
         style="opacity:1;fill:#00ff00;fill-opacity:1;fill-rule:evenodd;stroke:none;stroke-opacity:1;filter:url(#filter4723)" />
      <path
         transform="translate(-23.285711,43.933613)"
         id="path3351"
         d="M 332.97183,578.37521 C 331.84494,577.18266 330.11171,575.11155 329.12021,573.77275 C 327.37649,571.41829 327.34147,571.31205 328.05047,570.52854 C 330.00226,568.37175 349.26141,554.52404 350.30926,554.52404 C 351.56901,554.52404 348.46894,560.5758 341.84657,571.04434 C 337.89599,577.28926 335.64328,580.5435 335.27071,580.5435 C 335.13322,580.5435 334.09872,579.56777 332.97183,578.37521 z"
         style="opacity:1;fill:#b2a926;fill-opacity:1;fill-rule:evenodd;stroke:none;stroke-opacity:1;filter:url(#filter4803)" />
    </g>
  </g>
</svg>
